#!OML:ASF I:\Random Stuff\random\construction\7_22_03\Session 2\subj1.ASF
:FULLY-SPECIFIED
:DEGREES
548
root -0.05648 17.7752 -0.324468 -4.4527 74.4062 -11.1778
lowerback 1.55146 0.537928 0.642432
upperback -2.94792 0.832732 1.74536
thorax -3.92097 0.437451 1.39605
lowerneck -24.4387 1.35419 2.06424
upperneck 25.5515 1.14793 0.37372
head 12.5655 0.824973 0.0143509
rclavicle -2.97804e-014 -6.75868e-015
rhumerus -3.26282 31.4076 -82.3073
rradius 122.975
rwrist -18.9145
rhand -32.1396 26.7846
rfingers 7.12502
rthumb -5.38349 -3.12706
lclavicle -2.97804e-014 -6.75868e-015
lhumerus -34.4634 -14.9995 97.5563
lradius 31.6295
lwrist 28.4952
lhand -20.8079 58.1145
lfingers 7.12502
lthumb 5.55984 -271.978
rfemur -0.689868 4.5664 22.3483
rtibia -3.18055e-015
rfoot -2.75106 -14.3716
rtoes -12.6903
lfemur -11.1575 -20.6086 -11.5317
ltibia 18.7006
lfoot -13.4736 17.2462
ltoes -30.5171
549
root -0.0558473 17.7735 -0.322764 -4.5141 74.3574 -11.2072
lowerback 1.67762 0.573873 0.684852
upperback -2.99813 0.883997 1.70099
thorax -4.04426 0.46103 1.32262
lowerneck -24.4365 1.32707 2.07325
upperneck 25.6167 1.09559 0.41283
head 12.5907 0.809565 0.0190781
rclavicle -4.39469e-014 -1.15295e-014
rhumerus -3.39806 31.4053 -82.4245
rradius 122.98
rwrist -18.8843
rhand -32.1283 26.8604
rfingers 7.12502
rthumb -5.37263 -3.05151
lclavicle -4.39469e-014 -1.15295e-014
lhumerus -34.5633 -15.0655 97.5752
lradius 31.792
lwrist 28.5193
lhand -20.798 58.1072
lfingers 7.12502
lthumb 5.56934 -271.986
rfemur -0.663999 4.61392 22.3754
rtibia -5.56597e-015
rfoot -2.66642 -14.3656
rtoes -12.9254
lfemur -11.0997 -20.6374 -11.5235
ltibia 18.694
lfoot -13.5132 17.3001
ltoes -30.3094
550
root -0.0554753 17.775 -0.322502 -4.54112 74.3209 -11.2206
lowerback 1.66523 0.58528 0.671627
upperback -2.97574 0.897686 1.69937
thorax -4.01441 0.468042 1.32784
lowerneck -24.4844 1.32325 2.13709
upperneck 25.6452 1.08582 0.339954
head 12.6123 0.801484 -0.0208526
rclavicle -1.87199e-014 1.15295e-014
rhumerus -3.35932 31.425 -82.423
rradius 122.985
rwrist -18.8538
rhand -32.1746 26.8487
rfingers 7.12502
rthumb -5.41731 -3.06208
lclavicle -1.87199e-014 1.15295e-014
lhumerus -34.4225 -15.0815 97.5229
lradius 31.8315
lwrist 28.4645
lhand -20.5685 58.3439
lfingers 7.12502
lthumb 5.79094 -271.755
rfemur -0.643256 4.65024 22.3944
rtibia -4.77083e-015
rfoot -2.63551 -14.3709
rtoes -12.9573
lfemur -11.0542 -20.5813 -11.5198
ltibia 18.6576
lfoot -13.5242 17.2577
ltoes -30.0243
551
root -0.0555279 17.7764 -0.323789 -4.49468 74.2926 -11.1854
lowerback 1.66146 0.583801 0.633118
upperback -2.98711 0.895213 1.71351
thorax -4.02487 0.468372 1.36415
lowerneck -24.5433 1.28216 2.20701
upperneck 25.7171 1.03458 0.222321
head 12.6534 0.769984 -0.0861477
rclavicle -1.92573e-016 1.41137e-014
rhumerus -3.37038 31.5127 -82.4279
rradius 123.028
rwrist -18.9047
rhand -32.3844 26.9243
rfingers 7.12502
rthumb -5.61988 -2.98115
lclavicle -1.92573e-016 1.41137e-014
lhumerus -34.2879 -14.9537 97.4422
lradius 31.8121
lwrist 28.2083
lhand -20.0539 58.4534
lfingers 7.12502
lthumb 6.2878 -271.66
rfemur -0.661475 4.67986 22.3891
rtibia -4.77083e-015
rfoot -2.60431 -14.372
rtoes -13.0558
lfemur -11.031 -20.5719 -11.5236
ltibia 18.5961
lfoot -13.5557 17.2498
ltoes -29.6496
552
root -0.0543256 17.7768 -0.324816 -4.44055 74.2568 -11.1319
lowerback 1.6154 0.570861 0.584478
upperback -2.96448 0.875762 1.73905
thorax -3.97604 0.460529 1.41927
lowerneck -24.5868 1.2482 2.27907
upperneck 25.7386 0.997636 0.0863428
head 12.6714 0.74158 -0.15685
rclavicle -1.5822e-014 -1.23246e-014
rhumerus -3.31224 31.638 -82.3839
rradius 123.077
rwrist -19.112
rhand -32.4836 26.9622
rfingers 7.12502
rthumb -5.71563 -2.9407
lclavicle -1.5822e-014 -1.23246e-014
lhumerus -34.2386 -14.8569 97.4513
lradius 31.9286
lwrist 28.3194
lhand -20.0223 58.5532
lfingers 7.12502
lthumb 6.31827 -271.561
rfemur -0.6738 4.71657 22.3761
rtibia 1.59028e-015
rfoot -2.56808 -14.375
rtoes -13.3485
lfemur -10.96 -20.5983 -11.5401
ltibia 18.4818
lfoot -13.5072 17.3064
ltoes -29.4796
553
root -0.0522537 17.7794 -0.326611 -4.31573 74.2205 -10.9958
lowerback 1.56677 0.550698 0.543455
upperback -2.94029 0.845966 1.74479
thorax -3.92341 0.446818 1.4502
lowerneck -24.5775 1.25376 2.3921
upperneck 25.7795 1.00313 -0.0466923
head 12.6875 0.737191 -0.225852
rclavicle 6.46671e-015 1.94809e-014
rhumerus -3.21916 31.7063 -82.3356
rradius 123.116
rwrist -19.3808
rhand -32.5298 26.8732
rfingers 7.12502
rthumb -5.76028 -3.02846
lclavicle 6.46671e-015 1.94809e-014
lhumerus -34.2539 -14.8797 97.5203
lradius 32.0701
lwrist 28.7019
lhand -20.3929 58.7062
lfingers 7.12502
lthumb 5.9605 -271.398
rfemur -0.666892 4.75348 22.3177
rtibia -7.95139e-015
rfoot -2.68055 -14.3747
rtoes -12.2349
lfemur -10.8743 -20.522 -11.5998
ltibia 18.3679
lfoot -13.3734 17.3033
ltoes -29.7881
554
root -0.0518767 17.7843 -0.328462 -4.19138 74.1874 -10.8646
lowerback 1.62032 0.547745 0.540028
upperback -2.98259 0.842621 1.71417
thorax -3.99712 0.444934 1.42014
lowerneck -24.5478 1.24548 2.51059
upperneck 25.9062 0.971934 -0.120414
head 12.7335 0.727506 -0.279204
rclavicle -2.18446e-014 1.59028e-015
rhumerus -3.25869 31.6825 -82.3909
rradius 123.124
rwrist -19.4074
rhand -32.7689 26.7661
rfingers 7.12502
rthumb -5.99107 -3.12922
lclavicle -2.18446e-014 1.59028e-015
lhumerus -34.3149 -14.899 97.5418
lradius 32.0322
lwrist 28.7387
lhand -20.6375 58.5816
lfingers 7.12502
lthumb 5.72431 -271.516
rfemur -0.670378 4.78627 22.248
rtibia 3.18055e-015
rfoot -2.88498 -14.3528
rtoes -9.8106
lfemur -10.827 -20.4322 -11.6534
ltibia 18.3005
lfoot -13.3058 17.2644
ltoes -30.215
